<svg width="384" height="384" viewBox="0 0 24 24" xmlns="http://www.w3.org/2000/svg" shape-rendering="crispEdges"><rect x="0" y="0" width="24" height="1" fill="#0084ff"/><rect x="0" y="1" width="2" height="1" fill="#0084ff"/><rect x="3" y="1" width="16" height="1" fill="#0084ff"/><rect x="20" y="1" width="4" height="1" fill="#0084ff"/><rect x="0" y="2" width="1" height="1" fill="#0084ff"/><rect x="4" y="2" width="14" height="1" fill="#0084ff"/><rect x="21" y="2" width="3" height="1" fill="#0084ff"/><rect x="0" y="13" width="1" height="1" fill="#0084ff"/><rect x="4" y="13" width="20" height="1" fill="#0084ff"/><rect x="8" y="14" width="16" height="1" fill="#0084ff"/><rect x="10" y="15" width="14" height="1" fill="#0084ff"/><rect x="2" y="1" width="1" height="3" fill="#f1eeee"/><rect x="19" y="1" width="1" height="3" fill="#f1eeee"/><rect x="1" y="2" width="1" height="2" fill="#f1eeee"/><rect x="3" y="2" width="1" height="2" fill="#f1eeee"/><rect x="18" y="2" width="1" height="3" fill="#f1eeee"/><rect x="20" y="2" width="1" height="1" fill="#f1eeee"/><rect x="4" y="3" width="1" height="1" fill="#f1eeee"/><rect x="17" y="4" width="1" height="4" fill="#f1eeee"/><rect x="20" y="6" width="1" height="2" fill="#f1eeee"/><rect x="16" y="7" width="1" height="2" fill="#f1eeee"/><rect x="21" y="8" width="1" height="3" fill="#f1eeee"/><rect x="15" y="9" width="1" height="1" fill="#f1eeee"/><rect x="14" y="10" width="1" height="2" fill="#f1eeee"/><rect x="22" y="11" width="2" height="1" fill="#f1eeee"/><rect x="0" y="3" width="1" height="3" fill="#009dff"/><rect x="5" y="3" width="13" height="1" fill="#009dff"/><rect x="22" y="3" width="2" height="3" fill="#009dff"/><rect x="1" y="4" width="16" height="2" fill="#009dff"/><rect x="20" y="3" width="2" height="3" fill="#FFF"/><rect x="19" y="4" width="1" height="9" fill="#FFF"/><rect x="18" y="5" width="1" height="8" fill="#FFF"/><rect x="21" y="6" width="1" height="2" fill="#FFF"/><rect x="22" y="7" width="1" height="4" fill="#FFF"/><rect x="17" y="8" width="1" height="5" fill="#FFF"/><rect x="20" y="8" width="1" height="5" fill="#FFF"/><rect x="16" y="9" width="1" height="4" fill="#FFF"/><rect x="15" y="10" width="1" height="3" fill="#FFF"/><rect x="21" y="11" width="1" height="2" fill="#FFF"/><rect x="0" y="12" width="2" height="1" fill="#FFF"/><rect x="3" y="12" width="12" height="1" fill="#FFF"/><rect x="22" y="12" width="2" height="1" fill="#FFF"/><rect x="0" y="6" width="17" height="1" fill="#0cf"/><rect x="22" y="6" width="2" height="1" fill="#0cf"/><rect x="0" y="7" width="16" height="2" fill="#0cf"/><rect x="23" y="7" width="1" height="2" fill="#0cf"/><rect x="0" y="9" width="15" height="1" fill="#a3edff"/><rect x="23" y="9" width="1" height="2" fill="#a3edff"/><rect x="0" y="10" width="14" height="2" fill="#a3edff"/><rect x="2" y="12" width="1" height="2" fill="#99c296"/><rect x="3" y="13" width="1" height="5" fill="#99c296"/><rect x="2" y="18" width="1" height="1" fill="#99c296"/><rect x="4" y="18" width="1" height="2" fill="#99c296"/><rect x="1" y="13" width="1" height="7" fill="#608e58"/><rect x="2" y="14" width="1" height="4" fill="#608e58"/><rect x="0" y="16" width="1" height="4" fill="#608e58"/><rect x="3" y="18" width="1" height="2" fill="#608e58"/><rect x="0" y="14" width="1" height="2" fill="#008809"/><rect x="0" y="20" width="1" height="4" fill="#008809"/><rect x="3" y="20" width="3" height="4" fill="#008809"/><rect x="1" y="23" width="2" height="1" fill="#008809"/><rect x="6" y="23" width="1" height="1" fill="#008809"/><rect x="4" y="14" width="1" height="1" fill="#9c9b9a"/><rect x="6" y="16" width="1" height="1" fill="#9c9b9a"/><rect x="7" y="17" width="1" height="1" fill="#9c9b9a"/><rect x="8" y="19" width="1" height="1" fill="#9c9b9a"/><rect x="9" y="20" width="1" height="1" fill="#9c9b9a"/><rect x="10" y="22" width="1" height="2" fill="#9c9b9a"/><rect x="11" y="23" width="1" height="1" fill="#9c9b9a"/><rect x="5" y="14" width="2" height="2" fill="#858380"/><rect x="4" y="15" width="1" height="3" fill="#858380"/><rect x="7" y="15" width="1" height="2" fill="#858380"/><rect x="5" y="16" width="1" height="4" fill="#858380"/><rect x="8" y="16" width="2" height="3" fill="#858380"/><rect x="6" y="17" width="1" height="6" fill="#858380"/><rect x="10" y="17" width="1" height="5" fill="#858380"/><rect x="7" y="18" width="1" height="6" fill="#858380"/><rect x="11" y="18" width="1" height="5" fill="#858380"/><rect x="9" y="19" width="1" height="1" fill="#858380"/><rect x="12" y="19" width="1" height="5" fill="#858380"/><rect x="8" y="20" width="1" height="4" fill="#858380"/><rect x="13" y="20" width="1" height="4" fill="#858380"/><rect x="9" y="21" width="1" height="3" fill="#858380"/><rect x="14" y="21" width="1" height="3" fill="#858380"/><rect x="15" y="23" width="1" height="1" fill="#858380"/><rect x="7" y="14" width="1" height="1" fill="#f2f7d0"/><rect x="8" y="15" width="2" height="1" fill="#f2f7d0"/><rect x="10" y="16" width="2" height="1" fill="#f2f7d0"/><rect x="11" y="17" width="3" height="1" fill="#f2f7d0"/><rect x="12" y="18" width="4" height="1" fill="#f2f7d0"/><rect x="13" y="19" width="4" height="1" fill="#f2f7d0"/><rect x="14" y="20" width="4" height="1" fill="#f2f7d0"/><rect x="15" y="21" width="5" height="2" fill="#f2f7d0"/><rect x="20" y="22" width="1" height="2" fill="#f2f7d0"/><rect x="16" y="23" width="4" height="1" fill="#f2f7d0"/><rect x="21" y="23" width="1" height="1" fill="#f2f7d0"/><rect x="12" y="16" width="12" height="1" fill="#026fd4"/><rect x="14" y="17" width="10" height="1" fill="#026fd4"/><rect x="16" y="18" width="8" height="1" fill="#026fd4"/><rect x="17" y="19" width="7" height="1" fill="#026fd4"/><rect x="2" y="19" width="1" height="1" fill="#806107"/><rect x="1" y="20" width="1" height="3" fill="#806107"/><rect x="2" y="20" width="1" height="1" fill="#7d5901"/><rect x="2" y="22" width="1" height="1" fill="#7d5901"/><rect x="18" y="20" width="6" height="1" fill="#015aad"/><rect x="20" y="21" width="4" height="1" fill="#015aad"/><rect x="21" y="22" width="3" height="1" fill="#015aad"/><rect x="22" y="23" width="2" height="1" fill="#015aad"/><rect x="2" y="21" width="1" height="1" fill="#7f5d00"/></svg>