<svg width="384" height="384" viewBox="0 0 24 24" xmlns="http://www.w3.org/2000/svg" shape-rendering="crispEdges"><rect x="0" y="0" width="3" height="1" fill="#FFC6E0"/><rect x="7" y="0" width="17" height="1" fill="#FFC6E0"/><rect x="0" y="1" width="1" height="7" fill="#FFC6E0"/><rect x="4" y="1" width="2" height="1" fill="#FFC6E0"/><rect x="9" y="1" width="8" height="2" fill="#FFC6E0"/><rect x="19" y="1" width="5" height="1" fill="#FFC6E0"/><rect x="5" y="2" width="1" height="1" fill="#FFC6E0"/><rect x="21" y="2" width="3" height="1" fill="#FFC6E0"/><rect x="1" y="3" width="1" height="4" fill="#FFC6E0"/><rect x="4" y="3" width="1" height="1" fill="#FFC6E0"/><rect x="9" y="3" width="7" height="2" fill="#FFC6E0"/><rect x="19" y="3" width="1" height="1" fill="#FFC6E0"/><rect x="22" y="3" width="2" height="3" fill="#FFC6E0"/><rect x="8" y="4" width="1" height="1" fill="#FFC6E0"/><rect x="2" y="5" width="1" height="1" fill="#FFC6E0"/><rect x="5" y="5" width="2" height="1" fill="#FFC6E0"/><rect x="9" y="5" width="6" height="1" fill="#FFC6E0"/><rect x="17" y="5" width="2" height="1" fill="#FFC6E0"/><rect x="20" y="5" width="1" height="1" fill="#FFC6E0"/><rect x="9" y="6" width="5" height="1" fill="#FFC6E0"/><rect x="23" y="6" width="1" height="2" fill="#FFC6E0"/><rect x="10" y="7" width="4" height="1" fill="#FFC6E0"/><rect x="3" y="0" width="4" height="1" fill="#FFB3D9"/><rect x="1" y="1" width="3" height="2" fill="#FFB3D9"/><rect x="4" y="2" width="1" height="1" fill="#FFB3D9"/><rect x="2" y="3" width="2" height="2" fill="#FFB3D9"/><rect x="5" y="3" width="3" height="1" fill="#FFB3D9"/><rect x="17" y="3" width="2" height="1" fill="#FFB3D9"/><rect x="4" y="4" width="1" height="5" fill="#FFB3D9"/><rect x="6" y="4" width="2" height="1" fill="#FFB3D9"/><rect x="16" y="4" width="1" height="2" fill="#FFB3D9"/><rect x="18" y="4" width="2" height="1" fill="#FFB3D9"/><rect x="3" y="5" width="1" height="6" fill="#FFB3D9"/><rect x="7" y="5" width="2" height="1" fill="#FFB3D9"/><rect x="15" y="5" width="1" height="4" fill="#FFB3D9"/><rect x="19" y="5" width="1" height="4" fill="#FFB3D9"/><rect x="2" y="6" width="1" height="1" fill="#FFB3D9"/><rect x="5" y="6" width="2" height="2" fill="#FFB3D9"/><rect x="8" y="6" width="1" height="1" fill="#FFB3D9"/><rect x="17" y="6" width="2" height="3" fill="#FFB3D9"/><rect x="20" y="6" width="3" height="1" fill="#FFB3D9"/><rect x="1" y="7" width="1" height="5" fill="#FFB3D9"/><rect x="7" y="7" width="1" height="1" fill="#FFB3D9"/><rect x="16" y="7" width="1" height="2" fill="#FFB3D9"/><rect x="21" y="7" width="2" height="1" fill="#FFB3D9"/><rect x="0" y="8" width="1" height="4" fill="#FFB3D9"/><rect x="5" y="8" width="1" height="2" fill="#FFB3D9"/><rect x="22" y="8" width="2" height="2" fill="#FFB3D9"/><rect x="2" y="9" width="1" height="1" fill="#FFB3D9"/><rect x="18" y="9" width="1" height="3" fill="#FFB3D9"/><rect x="20" y="9" width="2" height="1" fill="#FFB3D9"/><rect x="4" y="10" width="1" height="1" fill="#FFB3D9"/><rect x="7" y="10" width="1" height="1" fill="#FFB3D9"/><rect x="19" y="10" width="2" height="1" fill="#FFB3D9"/><rect x="22" y="10" width="1" height="1" fill="#FFB3D9"/><rect x="5" y="11" width="2" height="1" fill="#FFB3D9"/><rect x="14" y="11" width="1" height="1" fill="#FFB3D9"/><rect x="19" y="11" width="1" height="2" fill="#FFB3D9"/><rect x="4" y="12" width="1" height="1" fill="#FFB3D9"/><rect x="21" y="12" width="1" height="2" fill="#FFB3D9"/><rect x="3" y="13" width="1" height="2" fill="#FFB3D9"/><rect x="10" y="13" width="1" height="1" fill="#FFB3D9"/><rect x="12" y="14" width="1" height="1" fill="#FFB3D9"/><rect x="17" y="14" width="1" height="1" fill="#FFB3D9"/><rect x="5" y="15" width="1" height="1" fill="#FFB3D9"/><rect x="20" y="15" width="1" height="1" fill="#FFB3D9"/><rect x="9" y="16" width="1" height="1" fill="#FFB3D9"/><rect x="16" y="16" width="1" height="1" fill="#FFB3D9"/><rect x="22" y="16" width="1" height="1" fill="#FFB3D9"/><rect x="2" y="17" width="1" height="1" fill="#FFB3D9"/><rect x="15" y="17" width="1" height="1" fill="#FFB3D9"/><rect x="18" y="17" width="1" height="1" fill="#FFB3D9"/><rect x="4" y="19" width="1" height="1" fill="#FFB3D9"/><rect x="8" y="19" width="1" height="1" fill="#FFB3D9"/><rect x="15" y="19" width="1" height="1" fill="#FFB3D9"/><rect x="1" y="20" width="1" height="1" fill="#FFB3D9"/><rect x="11" y="20" width="1" height="1" fill="#FFB3D9"/><rect x="19" y="20" width="1" height="1" fill="#FFB3D9"/><rect x="6" y="1" width="3" height="2" fill="#ffb3da"/><rect x="17" y="1" width="2" height="2" fill="#ffb3da"/><rect x="19" y="2" width="2" height="1" fill="#ffb3da"/><rect x="8" y="3" width="1" height="1" fill="#ffb3da"/><rect x="16" y="3" width="1" height="1" fill="#ffb3da"/><rect x="20" y="3" width="2" height="2" fill="#ffb3da"/><rect x="21" y="5" width="1" height="1" fill="#ffb3da"/><rect x="14" y="6" width="1" height="2" fill="#ffb3da"/><rect x="8" y="7" width="2" height="1" fill="#ffb3da"/><rect x="9" y="8" width="1" height="5" fill="#ffb3da"/><rect x="7" y="9" width="1" height="1" fill="#ffb3da"/><rect x="16" y="9" width="2" height="2" fill="#ffb3da"/><rect x="6" y="10" width="1" height="1" fill="#ffb3da"/><rect x="8" y="10" width="1" height="3" fill="#ffb3da"/><rect x="15" y="10" width="1" height="1" fill="#ffb3da"/><rect x="23" y="10" width="1" height="2" fill="#ffb3da"/><rect x="7" y="11" width="1" height="3" fill="#ffb3da"/><rect x="16" y="11" width="1" height="3" fill="#ffb3da"/><rect x="22" y="11" width="1" height="4" fill="#ffb3da"/><rect x="0" y="12" width="1" height="1" fill="#ffb3da"/><rect x="1" y="13" width="1" height="1" fill="#ffb3da"/><rect x="0" y="14" width="1" height="2" fill="#ffb3da"/><rect x="4" y="14" width="1" height="1" fill="#ffb3da"/><rect x="5" y="4" width="1" height="1" fill="#F9C"/><rect x="17" y="4" width="1" height="1" fill="#F9C"/><rect x="7" y="6" width="1" height="1" fill="#F9C"/><rect x="16" y="6" width="1" height="1" fill="#F9C"/><rect x="2" y="7" width="1" height="1" fill="#F9C"/><rect x="20" y="7" width="1" height="1" fill="#F9C"/><rect x="4" y="9" width="1" height="1" fill="#F9C"/><rect x="19" y="9" width="1" height="1" fill="#F9C"/><rect x="2" y="8" width="1" height="1" fill="#FFD6E8"/><rect x="6" y="8" width="3" height="1" fill="#FFD6E8"/><rect x="10" y="8" width="5" height="3" fill="#FFD6E8"/><rect x="20" y="8" width="2" height="1" fill="#FFD6E8"/><rect x="6" y="9" width="1" height="1" fill="#FFD6E8"/><rect x="8" y="9" width="1" height="1" fill="#FFD6E8"/><rect x="15" y="9" width="1" height="1" fill="#FFD6E8"/><rect x="5" y="10" width="1" height="1" fill="#FFD6E8"/><rect x="3" y="11" width="2" height="1" fill="#FFD6E8"/><rect x="10" y="11" width="4" height="2" fill="#FFD6E8"/><rect x="15" y="11" width="1" height="5" fill="#FFD6E8"/><rect x="1" y="12" width="1" height="1" fill="#FFD6E8"/><rect x="14" y="12" width="1" height="4" fill="#FFD6E8"/><rect x="23" y="12" width="1" height="4" fill="#FFD6E8"/><rect x="0" y="13" width="1" height="1" fill="#FFD6E8"/><rect x="4" y="13" width="1" height="1" fill="#FFD6E8"/><rect x="8" y="13" width="2" height="3" fill="#FFD6E8"/><rect x="11" y="13" width="3" height="1" fill="#FFD6E8"/><rect x="19" y="13" width="1" height="3" fill="#FFD6E8"/><rect x="1" y="14" width="1" height="2" fill="#FFD6E8"/><rect x="7" y="14" width="1" height="2" fill="#FFD6E8"/><rect x="10" y="14" width="2" height="2" fill="#FFD6E8"/><rect x="13" y="14" width="1" height="2" fill="#FFD6E8"/><rect x="16" y="14" width="1" height="2" fill="#FFD6E8"/><rect x="4" y="15" width="1" height="1" fill="#FFD6E8"/><rect x="12" y="15" width="1" height="1" fill="#FFD6E8"/><rect x="22" y="15" width="1" height="1" fill="#FFD6E8"/><rect x="2" y="10" width="1" height="4" fill="#7D5330"/><rect x="21" y="10" width="1" height="2" fill="#7D5330"/><rect x="17" y="11" width="1" height="1" fill="#7D5330"/><rect x="20" y="11" width="1" height="3" fill="#7D5330"/><rect x="3" y="12" width="1" height="1" fill="#7D5330"/><rect x="5" y="12" width="2" height="3" fill="#6B4423"/><rect x="17" y="12" width="2" height="2" fill="#6B4423"/><rect x="2" y="14" width="1" height="3" fill="#6B4423"/><rect x="18" y="14" width="1" height="3" fill="#6B4423"/><rect x="20" y="14" width="2" height="1" fill="#6B4423"/><rect x="3" y="15" width="1" height="6" fill="#6B4423"/><rect x="6" y="15" width="1" height="5" fill="#6B4423"/><rect x="17" y="15" width="1" height="5" fill="#6B4423"/><rect x="21" y="15" width="1" height="7" fill="#6B4423"/><rect x="5" y="16" width="1" height="5" fill="#6B4423"/><rect x="20" y="16" width="1" height="5" fill="#6B4423"/><rect x="2" y="18" width="1" height="4" fill="#6B4423"/><rect x="18" y="18" width="1" height="3" fill="#6B4423"/><rect x="0" y="16" width="2" height="2" fill="#FFE6F0"/><rect x="4" y="16" width="1" height="2" fill="#FFE6F0"/><rect x="7" y="16" width="2" height="2" fill="#FFE6F0"/><rect x="10" y="16" width="6" height="1" fill="#FFE6F0"/><rect x="19" y="16" width="1" height="2" fill="#FFE6F0"/><rect x="23" y="16" width="1" height="2" fill="#FFE6F0"/><rect x="9" y="17" width="6" height="1" fill="#FFE6F0"/><rect x="16" y="17" width="1" height="1" fill="#FFE6F0"/><rect x="22" y="17" width="1" height="1" fill="#FFE6F0"/><rect x="0" y="18" width="2" height="2" fill="#D4A574"/><rect x="4" y="18" width="1" height="1" fill="#D4A574"/><rect x="19" y="18" width="1" height="2" fill="#D4A574"/><rect x="22" y="18" width="2" height="2" fill="#D4A574"/><rect x="7" y="18" width="1" height="6" fill="#E8D5C4"/><rect x="16" y="18" width="1" height="6" fill="#E8D5C4"/><rect x="6" y="20" width="1" height="4" fill="#E8D5C4"/><rect x="17" y="20" width="1" height="4" fill="#E8D5C4"/><rect x="8" y="18" width="8" height="1" fill="#F0E2D5"/><rect x="9" y="19" width="6" height="1" fill="#F0E2D5"/><rect x="8" y="20" width="3" height="4" fill="#F0E2D5"/><rect x="12" y="20" width="4" height="4" fill="#F0E2D5"/><rect x="11" y="21" width="1" height="3" fill="#F0E2D5"/><rect x="0" y="20" width="1" height="4" fill="#C89F68"/><rect x="4" y="20" width="1" height="4" fill="#C89F68"/><rect x="22" y="20" width="2" height="4" fill="#C89F68"/><rect x="1" y="21" width="1" height="3" fill="#C89F68"/><rect x="3" y="21" width="1" height="3" fill="#C89F68"/><rect x="5" y="21" width="1" height="3" fill="#C89F68"/><rect x="18" y="21" width="3" height="3" fill="#C89F68"/><rect x="2" y="22" width="1" height="2" fill="#C89F68"/><rect x="21" y="22" width="1" height="2" fill="#C89F68"/></svg>