<svg viewBox="0 0 24 24" xmlns="http://www.w3.org/2000/svg">
<!-- Sky gradient -->
<rect x="0" y="0" width="24" height="24" fill="#87CEEB"/>
<rect x="0" y="0" width="24" height="16" fill="#6BB6FF"/>
<rect x="0" y="0" width="24" height="8" fill="#4A90E2"/>

<!-- Clouds -->
<rect x="2" y="3" width="3" height="1" fill="#FFFFFF" opacity="0.8"/>
<rect x="1" y="4" width="5" height="1" fill="#FFFFFF" opacity="0.8"/>
<rect x="2" y="5" width="3" height="1" fill="#FFFFFF" opacity="0.8"/>

<rect x="16" y="2" width="4" height="1" fill="#FFFFFF" opacity="0.7"/>
<rect x="15" y="3" width="6" height="1" fill="#FFFFFF" opacity="0.7"/>
<rect x="16" y="4" width="4" height="1" fill="#FFFFFF" opacity="0.7"/>

<rect x="9" y="5" width="3" height="1" fill="#FFFFFF" opacity="0.6"/>
<rect x="8" y="6" width="5" height="1" fill="#FFFFFF" opacity="0.6"/>
<rect x="9" y="7" width="3" height="1" fill="#FFFFFF" opacity="0.6"/>

<!-- Distant hills -->
<rect x="0" y="10" width="6" height="1" fill="#90C090"/>
<rect x="0" y="11" width="7" height="1" fill="#90C090"/>
<rect x="0" y="12" width="8" height="2" fill="#90C090"/>
<rect x="5" y="9" width="4" height="1" fill="#90C090"/>
<rect x="7" y="10" width="3" height="1" fill="#90C090"/>
<rect x="8" y="11" width="4" height="3" fill="#90C090"/>
<rect x="11" y="10" width="5" height="1" fill="#90C090"/>
<rect x="12" y="11" width="6" height="3" fill="#90C090"/>
<rect x="16" y="9" width="4" height="1" fill="#90C090"/>
<rect x="17" y="10" width="5" height="1" fill="#90C090"/>
<rect x="18" y="11" width="6" height="3" fill="#90C090"/>

<!-- Grass base -->
<rect x="0" y="14" width="24" height="10" fill="#7CB342"/>
<rect x="0" y="16" width="24" height="8" fill="#8BC34A"/>

<!-- Various flowers scattered across the field -->
<!-- Red flowers -->
<rect x="2" y="15" width="1" height="1" fill="#FF6B6B"/>
<rect x="1" y="16" width="3" height="1" fill="#FF6B6B"/>
<rect x="2" y="17" width="1" height="1" fill="#FF6B6B"/>
<rect x="2" y="18" width="1" height="1" fill="#4A7C59"/>

<rect x="18" y="16" width="1" height="1" fill="#FF6B6B"/>
<rect x="17" y="17" width="3" height="1" fill="#FF6B6B"/>
<rect x="18" y="18" width="1" height="1" fill="#FF6B6B"/>
<rect x="18" y="19" width="1" height="1" fill="#4A7C59"/>

<!-- Pink flowers -->
<rect x="6" y="14" width="1" height="1" fill="#FFB3D9"/>
<rect x="5" y="15" width="3" height="1" fill="#FFB3D9"/>
<rect x="6" y="16" width="1" height="1" fill="#FFB3D9"/>
<rect x="6" y="17" width="1" height="1" fill="#4A7C59"/>

<rect x="14" y="17" width="1" height="1" fill="#FFB3D9"/>
<rect x="13" y="18" width="3" height="1" fill="#FFB3D9"/>
<rect x="14" y="19" width="1" height="1" fill="#FFB3D9"/>
<rect x="14" y="20" width="1" height="1" fill="#4A7C59"/>

<!-- Yellow flowers -->
<rect x="10" y="15" width="1" height="1" fill="#FFEB3B"/>
<rect x="9" y="16" width="3" height="1" fill="#FFEB3B"/>
<rect x="10" y="17" width="1" height="1" fill="#FFEB3B"/>
<rect x="10" y="18" width="1" height="1" fill="#4A7C59"/>

<rect x="22" y="14" width="1" height="1" fill="#FFEB3B"/>
<rect x="21" y="15" width="3" height="1" fill="#FFEB3B"/>
<rect x="22" y="16" width="1" height="1" fill="#FFEB3B"/>
<rect x="22" y="17" width="1" height="1" fill="#4A7C59"/>

<!-- Purple flowers -->
<rect x="4" y="18" width="1" height="1" fill="#9C27B0"/>
<rect x="3" y="19" width="3" height="1" fill="#9C27B0"/>
<rect x="4" y="20" width="1" height="1" fill="#9C27B0"/>
<rect x="4" y="21" width="1" height="1" fill="#4A7C59"/>

<rect x="16" y="19" width="1" height="1" fill="#9C27B0"/>
<rect x="15" y="20" width="3" height="1" fill="#9C27B0"/>
<rect x="16" y="21" width="1" height="1" fill="#9C27B0"/>

<!-- Orange flowers -->
<rect x="8" y="19" width="1" height="1" fill="#FF9800"/>
<rect x="7" y="20" width="3" height="1" fill="#FF9800"/>
<rect x="8" y="21" width="1" height="1" fill="#FF9800"/>
<rect x="8" y="22" width="1" height="1" fill="#4A7C59"/>

<rect x="20" y="18" width="1" height="1" fill="#FF9800"/>
<rect x="19" y="19" width="3" height="1" fill="#FF9800"/>
<rect x="20" y="20" width="1" height="1" fill="#FF9800"/>
<rect x="20" y="21" width="1" height="1" fill="#4A7C59"/>

<!-- White flowers -->
<rect x="12" y="16" width="1" height="1" fill="#FFFFFF"/>
<rect x="11" y="17" width="3" height="1" fill="#FFFFFF"/>
<rect x="12" y="18" width="1" height="1" fill="#FFFFFF"/>
<rect x="12" y="19" width="1" height="1" fill="#4A7C59"/>

<!-- Small scattered flowers -->
<rect x="0" y="17" width="1" height="1" fill="#FFB3D9" opacity="0.8"/>
<rect x="5" y="19" width="1" height="1" fill="#FFEB3B" opacity="0.8"/>
<rect x="9" y="14" width="1" height="1" fill="#FF6B6B" opacity="0.8"/>
<rect x="13" y="15" width="1" height="1" fill="#9C27B0" opacity="0.8"/>
<rect x="17" y="14" width="1" height="1" fill="#FF9800" opacity="0.8"/>
<rect x="23" y="18" width="1" height="1" fill="#FFFFFF" opacity="0.8"/>

<!-- Flying petals -->
<rect x="4" y="8" width="1" height="1" fill="#FFB3D9" opacity="0.5"/>
<rect x="10" y="9" width="1" height="1" fill="#FFEB3B" opacity="0.4"/>
<rect x="15" y="10" width="1" height="1" fill="#FF6B6B" opacity="0.5"/>
<rect x="7" y="12" width="1" height="1" fill="#9C27B0" opacity="0.4"/>
<rect x="19" y="11" width="1" height="1" fill="#FF9800" opacity="0.5"/>
<rect x="2" y="13" width="1" height="1" fill="#FFFFFF" opacity="0.4"/>
<rect x="13" y="13" width="1" height="1" fill="#FFB3D9" opacity="0.5"/>
<rect x="22" y="12" width="1" height="1" fill="#FFEB3B" opacity="0.4"/>

<!-- Butterflies -->
<rect x="11" y="8" width="1" height="1" fill="#FF9800"/>
<rect x="10" y="8" width="1" height="1" fill="#FFEB3B"/>
<rect x="12" y="8" width="1" height="1" fill="#FFEB3B"/>

<rect x="17" y="6" width="1" height="1" fill="#9C27B0"/>
<rect x="16" y="6" width="1" height="1" fill="#E1BEE7"/>
<rect x="18" y="6" width="1" height="1" fill="#E1BEE7"/>
</svg>