<svg viewBox="0 0 24 24" xmlns="http://www.w3.org/2000/svg">
<!-- Sky gradient -->
<rect x="0" y="0" width="24" height="24" fill="#87CEEB"/>
<rect x="0" y="0" width="24" height="12" fill="#6BB6FF"/>
<rect x="0" y="0" width="24" height="6" fill="#4A90E2"/>

<!-- Clouds -->
<rect x="3" y="2" width="3" height="1" fill="#FFFFFF" opacity="0.7"/>
<rect x="2" y="3" width="5" height="1" fill="#FFFFFF" opacity="0.7"/>
<rect x="3" y="4" width="3" height="1" fill="#FFFFFF" opacity="0.7"/>

<rect x="16" y="3" width="4" height="1" fill="#FFFFFF" opacity="0.6"/>
<rect x="15" y="4" width="6" height="1" fill="#FFFFFF" opacity="0.6"/>
<rect x="16" y="5" width="4" height="1" fill="#FFFFFF" opacity="0.6"/>

<!-- Background trees (far) -->
<rect x="0" y="6" width="2" height="6" fill="#2D5A2D"/>
<rect x="2" y="5" width="2" height="7" fill="#2D5A2D"/>
<rect x="4" y="6" width="2" height="6" fill="#2D5A2D"/>
<rect x="6" y="4" width="2" height="8" fill="#2D5A2D"/>
<rect x="8" y="5" width="2" height="7" fill="#2D5A2D"/>
<rect x="10" y="6" width="2" height="6" fill="#2D5A2D"/>
<rect x="12" y="5" width="2" height="7" fill="#2D5A2D"/>
<rect x="14" y="4" width="2" height="8" fill="#2D5A2D"/>
<rect x="16" y="6" width="2" height="6" fill="#2D5A2D"/>
<rect x="18" y="5" width="2" height="7" fill="#2D5A2D"/>
<rect x="20" y="4" width="2" height="8" fill="#2D5A2D"/>
<rect x="22" y="6" width="2" height="6" fill="#2D5A2D"/>

<!-- Lake -->
<rect x="0" y="12" width="24" height="6" fill="#4682B4"/>
<rect x="0" y="13" width="24" height="5" fill="#5F9EA0"/>
<rect x="0" y="15" width="24" height="3" fill="#6495ED"/>

<!-- Lake reflections (trees) -->
<rect x="0" y="13" width="2" height="2" fill="#2D5A2D" opacity="0.4"/>
<rect x="2" y="12" width="2" height="2" fill="#2D5A2D" opacity="0.4"/>
<rect x="4" y="13" width="2" height="2" fill="#2D5A2D" opacity="0.4"/>
<rect x="6" y="12" width="2" height="3" fill="#2D5A2D" opacity="0.4"/>
<rect x="8" y="13" width="2" height="2" fill="#2D5A2D" opacity="0.4"/>
<rect x="10" y="13" width="2" height="2" fill="#2D5A2D" opacity="0.4"/>
<rect x="12" y="12" width="2" height="2" fill="#2D5A2D" opacity="0.4"/>
<rect x="14" y="12" width="2" height="3" fill="#2D5A2D" opacity="0.4"/>
<rect x="16" y="13" width="2" height="2" fill="#2D5A2D" opacity="0.4"/>
<rect x="18" y="12" width="2" height="2" fill="#2D5A2D" opacity="0.4"/>
<rect x="20" y="12" width="2" height="3" fill="#2D5A2D" opacity="0.4"/>
<rect x="22" y="13" width="2" height="2" fill="#2D5A2D" opacity="0.4"/>

<!-- Water ripples/highlights -->
<rect x="3" y="14" width="2" height="1" fill="#87CEEB" opacity="0.6"/>
<rect x="7" y="15" width="3" height="1" fill="#87CEEB" opacity="0.5"/>
<rect x="12" y="14" width="2" height="1" fill="#87CEEB" opacity="0.6"/>
<rect x="16" y="16" width="3" height="1" fill="#87CEEB" opacity="0.5"/>
<rect x="21" y="15" width="2" height="1" fill="#87CEEB" opacity="0.6"/>

<!-- Foreground trees (left) -->
<rect x="0" y="8" width="1" height="10" fill="#3E2723"/>
<rect x="1" y="9" width="1" height="9" fill="#3E2723"/>
<rect x="0" y="5" width="3" height="3" fill="#228B22"/>
<rect x="0" y="4" width="2" height="1" fill="#228B22"/>
<rect x="1" y="3" width="1" height="1" fill="#228B22"/>

<!-- Foreground trees (right) -->
<rect x="22" y="8" width="1" height="10" fill="#3E2723"/>
<rect x="23" y="9" width="1" height="9" fill="#3E2723"/>
<rect x="21" y="5" width="3" height="3" fill="#228B22"/>
<rect x="22" y="4" width="2" height="1" fill="#228B22"/>
<rect x="22" y="3" width="1" height="1" fill="#228B22"/>

<!-- Shore/beach -->
<rect x="0" y="18" width="24" height="2" fill="#D2B48C"/>
<rect x="0" y="20" width="24" height="4" fill="#C19A6B"/>

<!-- Rocks on shore -->
<rect x="3" y="18" width="2" height="1" fill="#808080"/>
<rect x="3" y="19" width="3" height="1" fill="#696969"/>
<rect x="10" y="19" width="2" height="1" fill="#808080"/>
<rect x="10" y="20" width="3" height="1" fill="#696969"/>
<rect x="18" y="18" width="3" height="1" fill="#808080"/>
<rect x="19" y="19" width="2" height="1" fill="#696969"/>

<!-- Small plants/grass -->
<rect x="2" y="19" width="1" height="1" fill="#558B2F"/>
<rect x="7" y="18" width="1" height="1" fill="#7CB342"/>
<rect x="14" y="19" width="1" height="1" fill="#558B2F"/>
<rect x="21" y="18" width="1" height="1" fill="#7CB342"/>

<!-- Birds -->
<rect x="8" y="7" width="2" height="1" fill="#2C2C2C"/>
<rect x="9" y="6" width="1" height="1" fill="#2C2C2C"/>
<rect x="9" y="8" width="1" height="1" fill="#2C2C2C"/>

<rect x="15" y="9" width="2" height="1" fill="#2C2C2C"/>
<rect x="16" y="8" width="1" height="1" fill="#2C2C2C"/>
<rect x="16" y="10" width="1" height="1" fill="#2C2C2C"/>

<!-- Lily pads -->
<rect x="5" y="16" width="2" height="1" fill="#2E7D32"/>
<rect x="6" y="17" width="1" height="1" fill="#1B5E20"/>
<rect x="14" y="15" width="2" height="1" fill="#2E7D32"/>
<rect x="15" y="16" width="1" height="1" fill="#1B5E20"/>
<rect x="19" y="16" width="2" height="1" fill="#2E7D32"/>
<rect x="20" y="17" width="1" height="1" fill="#1B5E20"/>

<!-- Water lily flowers -->
<rect x="6" y="16" width="1" height="1" fill="#FFFFFF"/>
<rect x="15" y="15" width="1" height="1" fill="#FFB3D9"/>
<rect x="20" y="16" width="1" height="1" fill="#FFFFFF"/>
</svg>