<svg width="384" height="384" viewBox="0 0 24 24" xmlns="http://www.w3.org/2000/svg" shape-rendering="crispEdges"><defs><pattern id="h" width="8" height="8" patternUnits="userSpaceOnUse"><rect width="3" height="1" fill="#dda0df"/><rect y="1" width="2" height="1" fill="#dda0df"/><rect y="2" width="1" height="1" fill="#dda0df"/><rect x="4" y="4" width="3" height="1" fill="#dda0df"/><rect x="4" y="5" width="2" height="1" fill="#dda0df"/><rect x="4" y="6" width="1" height="1" fill="#dda0df"/><rect x="3" width="1" height="1" fill="#f0d5f0"/><rect x="2" y="1" width="1" height="1" fill="#f0d5f0"/><rect x="1" y="2" width="1" height="1" fill="#f0d5f0"/><rect y="3" width="1" height="1" fill="#f0d5f0"/><rect x="7" y="4" width="1" height="1" fill="#f0d5f0"/><rect x="6" y="5" width="1" height="1" fill="#f0d5f0"/><rect x="5" y="6" width="1" height="1" fill="#f0d5f0"/><rect x="4" y="7" width="1" height="1" fill="#f0d5f0"/><rect x="4" width="4" height="4" fill="#e6e8fc"/><rect y="4" width="4" height="4" fill="#e6e8fc"/><rect x="3" y="1" width="1" height="3" fill="#FFF"/><rect x="2" y="2" width="1" height="2" fill="#FFF"/><rect x="1" y="3" width="1" height="1" fill="#FFF"/><rect x="7" y="5" width="1" height="3" fill="#FFF"/><rect x="6" y="6" width="1" height="2" fill="#FFF"/><rect x="5" y="7" width="1" height="1" fill="#FFF"/></pattern></defs><rect width="24" height="24" fill="url(#h)"/></svg>