<svg width="384" height="384" viewBox="0 0 24 24" xmlns="http://www.w3.org/2000/svg" shape-rendering="crispEdges"><rect x="0" y="0" width="24" height="1" fill="#000d4d"/><rect x="0" y="1" width="2" height="1" fill="#000d4d"/><rect x="4" y="1" width="6" height="2" fill="#000d4d"/><rect x="11" y="1" width="13" height="2" fill="#000d4d"/><rect x="0" y="2" width="1" height="22" fill="#000d4d"/><rect x="3" y="2" width="1" height="2" fill="#000d4d"/><rect x="10" y="2" width="1" height="22" fill="#000d4d"/><rect x="4" y="3" width="1" height="1" fill="#000d4d"/><rect x="6" y="3" width="4" height="6" fill="#000d4d"/><rect x="11" y="3" width="10" height="1" fill="#000d4d"/><rect x="22" y="3" width="2" height="21" fill="#000d4d"/><rect x="11" y="4" width="2" height="9" fill="#000d4d"/><rect x="14" y="4" width="8" height="7" fill="#000d4d"/><rect x="1" y="5" width="1" height="5" fill="#000d4d"/><rect x="5" y="5" width="1" height="10" fill="#000d4d"/><rect x="13" y="5" width="1" height="4" fill="#000d4d"/><rect x="2" y="6" width="3" height="12" fill="#000d4d"/><rect x="7" y="9" width="3" height="12" fill="#000d4d"/><rect x="6" y="10" width="1" height="14" fill="#000d4d"/><rect x="13" y="10" width="1" height="14" fill="#000d4d"/><rect x="1" y="11" width="1" height="13" fill="#000d4d"/><rect x="14" y="11" width="4" height="13" fill="#000d4d"/><rect x="19" y="11" width="3" height="6" fill="#000d4d"/><rect x="18" y="12" width="1" height="9" fill="#000d4d"/><rect x="12" y="13" width="1" height="9" fill="#000d4d"/><rect x="11" y="14" width="1" height="10" fill="#000d4d"/><rect x="5" y="16" width="1" height="8" fill="#000d4d"/><rect x="19" y="17" width="2" height="7" fill="#000d4d"/><rect x="3" y="18" width="2" height="6" fill="#000d4d"/><rect x="21" y="18" width="1" height="6" fill="#000d4d"/><rect x="2" y="19" width="1" height="5" fill="#000d4d"/><rect x="7" y="21" width="2" height="3" fill="#000d4d"/><rect x="9" y="22" width="1" height="2" fill="#000d4d"/><rect x="18" y="22" width="1" height="2" fill="#000d4d"/><rect x="12" y="23" width="1" height="1" fill="#000d4d"/><rect x="2" y="1" width="2" height="1" fill="#ff6"/><rect x="10" y="1" width="1" height="1" fill="#ff6"/><rect x="1" y="2" width="2" height="3" fill="#ff6"/><rect x="5" y="3" width="1" height="2" fill="#ff6"/><rect x="21" y="3" width="1" height="1" fill="#ff6"/><rect x="3" y="4" width="2" height="2" fill="#ff6"/><rect x="13" y="4" width="1" height="1" fill="#ff6"/><rect x="2" y="5" width="1" height="1" fill="#ff6"/><rect x="6" y="9" width="1" height="1" fill="#ff6"/><rect x="13" y="9" width="1" height="1" fill="#ff6"/><rect x="1" y="10" width="1" height="1" fill="#ff6"/><rect x="18" y="11" width="1" height="1" fill="#ff6"/><rect x="11" y="13" width="1" height="1" fill="#ff6"/><rect x="5" y="15" width="1" height="1" fill="#ff6"/><rect x="21" y="17" width="1" height="1" fill="#ff6"/><rect x="2" y="18" width="1" height="1" fill="#ff6"/><rect x="9" y="21" width="1" height="1" fill="#ff6"/><rect x="18" y="21" width="1" height="1" fill="#ff6"/><rect x="12" y="22" width="1" height="1" fill="#ff6"/></svg>