<svg width="384" height="384" viewBox="0 0 24 24" xmlns="http://www.w3.org/2000/svg" shape-rendering="crispEdges"><rect x="0" y="0" width="24" height="2" fill="#B8DCFF"/><rect x="0" y="2" width="7" height="2" fill="#B8DCFF"/><rect x="8" y="2" width="16" height="1" fill="#B8DCFF"/><rect x="7" y="3" width="7" height="2" fill="#B8DCFF"/><rect x="15" y="3" width="9" height="1" fill="#B8DCFF"/><rect x="0" y="4" width="3" height="4" fill="#B8DCFF"/><rect x="4" y="4" width="3" height="4" fill="#B8DCFF"/><rect x="14" y="4" width="7" height="2" fill="#B8DCFF"/><rect x="22" y="4" width="2" height="4" fill="#B8DCFF"/><rect x="3" y="5" width="1" height="3" fill="#B8DCFF"/><rect x="7" y="5" width="3" height="3" fill="#B8DCFF"/><rect x="11" y="5" width="3" height="2" fill="#B8DCFF"/><rect x="21" y="5" width="1" height="3" fill="#B8DCFF"/><rect x="10" y="6" width="1" height="2" fill="#B8DCFF"/><rect x="14" y="6" width="3" height="2" fill="#B8DCFF"/><rect x="18" y="6" width="3" height="2" fill="#B8DCFF"/><rect x="11" y="7" width="1" height="1" fill="#B8DCFF"/><rect x="13" y="7" width="1" height="1" fill="#B8DCFF"/><rect x="17" y="7" width="1" height="1" fill="#B8DCFF"/><rect x="7" y="2" width="1" height="1" fill="#FFF"/><rect x="14" y="3" width="1" height="1" fill="#FFF"/><rect x="3" y="4" width="1" height="1" fill="#FFF"/><rect x="21" y="4" width="1" height="1" fill="#FFF"/><rect x="10" y="5" width="1" height="1" fill="#FFF"/><rect x="17" y="6" width="1" height="1" fill="#FFF"/><rect x="12" y="7" width="1" height="1" fill="#FFF"/><rect x="5" y="8" width="1" height="1" fill="#FFF"/><rect x="20" y="8" width="1" height="1" fill="#FFF"/><rect x="16" y="9" width="1" height="1" fill="#FFF"/><rect x="9" y="10" width="1" height="1" fill="#FFF"/><rect x="15" y="10" width="1" height="1" fill="#FFF"/><rect x="2" y="11" width="1" height="1" fill="#FFF"/><rect x="10" y="11" width="2" height="1" fill="#FFF"/><rect x="16" y="12" width="1" height="1" fill="#FFF"/><rect x="22" y="12" width="1" height="1" fill="#FFF"/><rect x="4" y="13" width="2" height="1" fill="#FFF"/><rect x="20" y="13" width="1" height="1" fill="#FFF"/><rect x="20" y="15" width="2" height="1" fill="#FFF"/><rect x="19" y="16" width="2" height="1" fill="#FFF"/><rect x="22" y="16" width="1" height="3" fill="#FFF"/><rect x="20" y="17" width="2" height="7" fill="#FFF"/><rect x="19" y="18" width="1" height="1" fill="#FFF"/><rect x="0" y="19" width="4" height="5" fill="#FFF"/><rect x="6" y="19" width="3" height="5" fill="#FFF"/><rect x="11" y="19" width="5" height="5" fill="#FFF"/><rect x="4" y="20" width="2" height="4" fill="#FFF"/><rect x="9" y="20" width="2" height="4" fill="#FFF"/><rect x="16" y="20" width="2" height="3" fill="#FFF"/><rect x="19" y="20" width="1" height="3" fill="#FFF"/><rect x="22" y="20" width="1" height="3" fill="#FFF"/><rect x="16" y="23" width="1" height="1" fill="#FFF"/><rect x="0" y="8" width="5" height="1" fill="#D1E7FF"/><rect x="6" y="8" width="14" height="1" fill="#D1E7FF"/><rect x="21" y="8" width="3" height="3" fill="#D1E7FF"/><rect x="0" y="9" width="4" height="1" fill="#D1E7FF"/><rect x="6" y="9" width="6" height="1" fill="#D1E7FF"/><rect x="14" y="9" width="2" height="1" fill="#D1E7FF"/><rect x="17" y="9" width="4" height="2" fill="#D1E7FF"/><rect x="0" y="10" width="3" height="1" fill="#D1E7FF"/><rect x="7" y="10" width="2" height="1" fill="#D1E7FF"/><rect x="10" y="10" width="1" height="1" fill="#D1E7FF"/><rect x="16" y="10" width="1" height="2" fill="#D1E7FF"/><rect x="0" y="11" width="2" height="1" fill="#D1E7FF"/><rect x="8" y="11" width="2" height="1" fill="#D1E7FF"/><rect x="17" y="11" width="3" height="1" fill="#D1E7FF"/><rect x="22" y="11" width="2" height="1" fill="#D1E7FF"/><rect x="4" y="9" width="2" height="2" fill="#C8D8E8"/><rect x="12" y="9" width="2" height="2" fill="#C8D8E8"/><rect x="3" y="10" width="1" height="2" fill="#C8D8E8"/><rect x="6" y="10" width="1" height="2" fill="#C8D8E8"/><rect x="11" y="10" width="1" height="1" fill="#C8D8E8"/><rect x="14" y="10" width="1" height="2" fill="#C8D8E8"/><rect x="7" y="11" width="1" height="2" fill="#C8D8E8"/><rect x="15" y="11" width="1" height="1" fill="#C8D8E8"/><rect x="0" y="12" width="2" height="2" fill="#C8D8E8"/><rect x="8" y="12" width="1" height="1" fill="#C8D8E8"/><rect x="17" y="12" width="2" height="1" fill="#C8D8E8"/><rect x="20" y="12" width="1" height="1" fill="#C8D8E8"/><rect x="23" y="12" width="1" height="1" fill="#C8D8E8"/><rect x="10" y="13" width="1" height="4" fill="#C8D8E8"/><rect x="18" y="13" width="1" height="1" fill="#C8D8E8"/><rect x="21" y="13" width="1" height="2" fill="#C8D8E8"/><rect x="0" y="14" width="1" height="2" fill="#C8D8E8"/><rect x="8" y="14" width="2" height="1" fill="#C8D8E8"/><rect x="19" y="14" width="2" height="1" fill="#C8D8E8"/><rect x="22" y="14" width="1" height="2" fill="#C8D8E8"/><rect x="9" y="15" width="1" height="1" fill="#C8D8E8"/><rect x="19" y="15" width="1" height="1" fill="#C8D8E8"/><rect x="2" y="16" width="2" height="1" fill="#C8D8E8"/><rect x="23" y="16" width="1" height="3" fill="#C8D8E8"/><rect x="3" y="17" width="1" height="1" fill="#C8D8E8"/><rect x="18" y="17" width="1" height="2" fill="#C8D8E8"/><rect x="17" y="19" width="1" height="1" fill="#C8D8E8"/><rect x="4" y="11" width="2" height="2" fill="#E0E8F0"/><rect x="12" y="11" width="2" height="2" fill="#E0E8F0"/><rect x="20" y="11" width="2" height="1" fill="#E0E8F0"/><rect x="6" y="12" width="1" height="2" fill="#E0E8F0"/><rect x="11" y="12" width="1" height="1" fill="#E0E8F0"/><rect x="19" y="12" width="1" height="2" fill="#E0E8F0"/><rect x="21" y="12" width="1" height="1" fill="#E0E8F0"/><rect x="2" y="13" width="1" height="2" fill="#E0E8F0"/><rect x="7" y="13" width="1" height="1" fill="#E0E8F0"/><rect x="12" y="13" width="1" height="1" fill="#E0E8F0"/><rect x="22" y="13" width="2" height="1" fill="#E0E8F0"/><rect x="1" y="14" width="1" height="4" fill="#E0E8F0"/><rect x="15" y="14" width="1" height="5" fill="#E0E8F0"/><rect x="23" y="14" width="1" height="2" fill="#E0E8F0"/><rect x="8" y="15" width="1" height="1" fill="#E0E8F0"/><rect x="14" y="15" width="1" height="4" fill="#E0E8F0"/><rect x="16" y="15" width="1" height="5" fill="#E0E8F0"/><rect x="6" y="16" width="1" height="2" fill="#E0E8F0"/><rect x="9" y="16" width="1" height="1" fill="#E0E8F0"/><rect x="17" y="16" width="1" height="3" fill="#E0E8F0"/><rect x="0" y="17" width="1" height="2" fill="#E0E8F0"/><rect x="7" y="17" width="1" height="2" fill="#E0E8F0"/><rect x="18" y="19" width="1" height="1" fill="#E0E8F0"/><rect x="23" y="19" width="1" height="1" fill="#E0E8F0"/><rect x="18" y="22" width="1" height="2" fill="#E0E8F0"/><rect x="23" y="22" width="1" height="2" fill="#E0E8F0"/><rect x="17" y="23" width="1" height="1" fill="#E0E8F0"/><rect x="2" y="12" width="2" height="1" fill="#F0F4F8"/><rect x="3" y="13" width="1" height="3" fill="#F0F4F8"/><rect x="14" y="13" width="2" height="1" fill="#F0F4F8"/><rect x="4" y="14" width="3" height="1" fill="#F0F4F8"/><rect x="13" y="14" width="2" height="1" fill="#F0F4F8"/><rect x="18" y="14" width="1" height="2" fill="#F0F4F8"/><rect x="2" y="15" width="1" height="1" fill="#F0F4F8"/><rect x="6" y="15" width="1" height="1" fill="#F0F4F8"/><rect x="13" y="15" width="1" height="2" fill="#F0F4F8"/><rect x="0" y="16" width="1" height="1" fill="#F0F4F8"/><rect x="8" y="16" width="1" height="3" fill="#F0F4F8"/><rect x="12" y="16" width="1" height="3" fill="#F0F4F8"/><rect x="2" y="17" width="1" height="1" fill="#F0F4F8"/><rect x="9" y="17" width="3" height="2" fill="#F0F4F8"/><rect x="9" y="19" width="2" height="1" fill="#F0F4F8"/><rect x="19" y="19" width="1" height="1" fill="#F0F4F8"/><rect x="22" y="19" width="1" height="1" fill="#F0F4F8"/><rect x="18" y="20" width="1" height="2" fill="#F0F4F8"/><rect x="23" y="20" width="1" height="2" fill="#F0F4F8"/><rect x="19" y="23" width="1" height="1" fill="#F0F4F8"/><rect x="22" y="23" width="1" height="1" fill="#F0F4F8"/><rect x="9" y="12" width="2" height="1" fill="#E6F2FF"/><rect x="14" y="12" width="2" height="1" fill="#E6F2FF"/><rect x="8" y="13" width="2" height="1" fill="#E6F2FF"/><rect x="11" y="13" width="1" height="4" fill="#E6F2FF"/><rect x="13" y="13" width="1" height="1" fill="#E6F2FF"/><rect x="16" y="13" width="2" height="2" fill="#E6F2FF"/><rect x="7" y="14" width="1" height="3" fill="#E6F2FF"/><rect x="12" y="14" width="1" height="2" fill="#E6F2FF"/><rect x="4" y="15" width="2" height="5" fill="#E6F2FF"/><rect x="17" y="15" width="1" height="1" fill="#E6F2FF"/><rect x="18" y="16" width="1" height="1" fill="#E6F2FF"/><rect x="13" y="17" width="1" height="2" fill="#E6F2FF"/><rect x="1" y="18" width="3" height="1" fill="#E6F2FF"/><rect x="6" y="18" width="1" height="1" fill="#E6F2FF"/><rect x="21" y="16" width="1" height="1" fill="#838181"/><rect x="19" y="17" width="1" height="1" fill="#838181"/></svg>