<svg width="384" height="384" viewBox="0 0 24 24" xmlns="http://www.w3.org/2000/svg" shape-rendering="crispEdges"><rect x="0" y="0" width="24" height="1" fill="#000d4d"/><rect x="0" y="1" width="11" height="1" fill="#000d4d"/><rect x="12" y="1" width="10" height="2" fill="#000d4d"/><rect x="23" y="1" width="1" height="2" fill="#000d4d"/><rect x="0" y="2" width="1" height="1" fill="#000d4d"/><rect x="2" y="2" width="10" height="1" fill="#000d4d"/><rect x="22" y="2" width="1" height="1" fill="#000d4d"/><rect x="11" y="1" width="1" height="1" fill="#ffff7a"/><rect x="22" y="1" width="1" height="1" fill="#ffff7a"/><rect x="1" y="2" width="1" height="1" fill="#ffff7a"/><rect x="4" y="4" width="1" height="1" fill="#ffff7a"/><rect x="20" y="6" width="1" height="1" fill="#ffff7a"/><rect x="0" y="3" width="24" height="1" fill="#461644"/><rect x="0" y="4" width="4" height="2" fill="#461644"/><rect x="5" y="4" width="19" height="2" fill="#461644"/><rect x="4" y="5" width="1" height="1" fill="#461644"/><rect x="0" y="6" width="20" height="3" fill="#5d1708"/><rect x="21" y="6" width="3" height="3" fill="#5d1708"/><rect x="20" y="7" width="1" height="2" fill="#5d1708"/><rect x="0" y="9" width="24" height="1" fill="#f4482b"/><rect x="0" y="10" width="17" height="1" fill="#f4482b"/><rect x="19" y="10" width="5" height="1" fill="#f4482b"/><rect x="0" y="11" width="15" height="1" fill="#f4482b"/><rect x="21" y="11" width="3" height="1" fill="#f4482b"/><rect x="17" y="10" width="2" height="2" fill="#f6a334"/><rect x="15" y="11" width="2" height="2" fill="#f6a334"/><rect x="19" y="11" width="2" height="2" fill="#f6a334"/><rect x="0" y="12" width="15" height="3" fill="#f6a334"/><rect x="21" y="12" width="3" height="3" fill="#f6a334"/><rect x="15" y="13" width="1" height="1" fill="#f6a334"/><rect x="20" y="13" width="1" height="1" fill="#f6a334"/><rect x="17" y="12" width="2" height="1" fill="#f2e60d"/><rect x="16" y="13" width="1" height="2" fill="#f2e60d"/><rect x="19" y="13" width="1" height="2" fill="#f2e60d"/><rect x="15" y="14" width="1" height="2" fill="#f2e60d"/><rect x="20" y="14" width="1" height="2" fill="#f2e60d"/><rect x="0" y="15" width="15" height="3" fill="#f2e60d"/><rect x="21" y="15" width="3" height="3" fill="#f2e60d"/><rect x="0" y="19" width="15" height="1" fill="#f2e60d"/><rect x="20" y="19" width="4" height="1" fill="#f2e60d"/><rect x="14" y="20" width="2" height="1" fill="#f2e60d"/><rect x="19" y="20" width="2" height="1" fill="#f2e60d"/><rect x="16" y="21" width="4" height="1" fill="#f2e60d"/><rect x="17" y="13" width="2" height="8" fill="#f2f7d0"/><rect x="16" y="15" width="1" height="6" fill="#f2f7d0"/><rect x="19" y="15" width="1" height="5" fill="#f2f7d0"/><rect x="15" y="16" width="1" height="4" fill="#f2f7d0"/><rect x="20" y="16" width="1" height="3" fill="#f2f7d0"/><rect x="0" y="18" width="15" height="1" fill="#f2f7d0"/><rect x="21" y="18" width="3" height="1" fill="#f2f7d0"/><rect x="0" y="20" width="14" height="1" fill="#ff5900"/><rect x="21" y="20" width="3" height="1" fill="#ff5900"/><rect x="12" y="21" width="4" height="1" fill="#ff5900"/><rect x="20" y="21" width="3" height="1" fill="#ff5900"/><rect x="15" y="22" width="6" height="1" fill="#ff5900"/><rect x="0" y="21" width="12" height="2" fill="#680e0c"/><rect x="23" y="21" width="1" height="2" fill="#680e0c"/><rect x="12" y="22" width="3" height="1" fill="#680e0c"/><rect x="22" y="22" width="1" height="1" fill="#680e0c"/><rect x="21" y="22" width="1" height="2" fill="#49090b"/><rect x="0" y="23" width="21" height="1" fill="#49090b"/><rect x="22" y="23" width="2" height="1" fill="#49090b"/></svg>